<?xml version="1.0" encoding="UTF-8"?><svg id="a" xmlns="http://www.w3.org/2000/svg" xmlns:xlink="http://www.w3.org/1999/xlink" viewBox="0 0 22 22"><defs><style>.h{fill:#fff;}.i{fill:url(#c);}.j{fill:url(#f);}.k{fill:url(#g);}.l{fill:url(#b);}.m{fill:url(#d);}.n{fill:url(#e);}</style><linearGradient id="b" x1="15.1" y1="1.94" x2="13.17" y2="3.87" gradientTransform="matrix(1, 0, 0, 1, 0, 0)" gradientUnits="userSpaceOnUse"><stop offset="0" stop-color="#ff97b0"/><stop offset="1" stop-color="#92aaff"/></linearGradient><linearGradient id="c" x1="20.1" y1="1.94" x2="18.17" y2="3.86" xlink:href="#b"/><linearGradient id="d" x1="17.6" y1="5.69" x2="15.67" y2="7.62" xlink:href="#b"/><linearGradient id="e" x1="20.1" y1="9.44" x2="18.17" y2="11.37" xlink:href="#b"/><linearGradient id="f" x1="4.75" y1="3.51" x2="9.78" y2="3.51" xlink:href="#b"/><linearGradient id="g" x1="1.02" y1="14.14" x2="13.49" y2="14.14" xlink:href="#b"/></defs><path class="l" d="M14.15,1.06c.19,.05,.23,.22,.27,.36,.15,.65,.54,1.05,1.2,1.19,.14,.03,.34,.08,.35,.26,.02,.23-.21,.27-.36,.31-.66,.15-1.04,.54-1.19,1.19-.03,.14-.08,.34-.26,.35-.23,.02-.27-.21-.31-.36-.15-.66-.54-1.04-1.19-1.19-.14-.03-.34-.08-.35-.26-.02-.23,.21-.27,.36-.31,.66-.15,1.04-.55,1.19-1.19,.04-.15,.08-.35,.3-.36Z"/><path class="i" d="M20.98,2.9c-.01,.18-.16,.23-.29,.25-.71,.15-1.14,.58-1.3,1.29-.03,.12-.08,.29-.25,.3-.18,.01-.23-.15-.26-.28-.16-.7-.57-1.14-1.29-1.3-.12-.03-.29-.08-.29-.25,0-.18,.16-.23,.28-.26,.71-.15,1.13-.58,1.29-1.29,.03-.12,.08-.29,.25-.29,.17,0,.23,.16,.26,.28,.16,.71,.57,1.14,1.29,1.29,.12,.03,.27,.08,.3,.26Z"/><path class="m" d="M18.48,6.66c-.04,.19-.21,.25-.35,.28-.68,.14-1.08,.55-1.22,1.23-.03,.14-.08,.33-.28,.33-.2,0-.24-.2-.27-.34-.15-.68-.55-1.08-1.23-1.22-.14-.03-.33-.08-.33-.28,0-.2,.2-.24,.34-.27,.67-.15,1.08-.55,1.22-1.23,.03-.14,.08-.33,.28-.33,.17,0,.23,.17,.26,.29,.16,.71,.58,1.14,1.29,1.29,.13,.03,.27,.08,.29,.25Z"/><path class="n" d="M19.14,8.56c.17,.04,.22,.18,.25,.31,.16,.68,.54,1.12,1.25,1.27,.14,.03,.33,.08,.32,.28-.01,.19-.21,.23-.35,.26-.65,.15-1.06,.51-1.21,1.18-.03,.15-.08,.38-.3,.37-.19,0-.24-.21-.27-.34-.15-.68-.57-1.07-1.24-1.22-.14-.03-.33-.08-.32-.28,.01-.17,.18-.21,.3-.24,.72-.15,1.13-.6,1.29-1.3,.03-.13,.08-.27,.25-.28Z"/><path class="j" d="M7.06,1h.42c1.27,0,2.3,1.03,2.3,2.3v2.32c0,.22-.18,.4-.4,.4H5.16c-.22,0-.4-.18-.4-.4V3.3c0-1.27,1.03-2.3,2.3-2.3Z"/><path class="k" d="M7.24,21c-1.4,0-3.02,0-4.42,0-1.21,0-1.79-.46-1.79-1.67,0-2.67-.02-5.65,0-8.32,.02-2.07,2.05-3.69,4.13-3.71,1.68-.02,2.53-.02,4.21,0,2.11,.03,4.11,1.65,4.12,3.76,0,2.65,0,5.62,0,8.27,0,1.21-.56,1.67-1.77,1.67-1.42,0-3.05,0-4.47,0Z"/><path class="h" d="M9.44,14.9c.46-.54,.93-1.09,.93-2.09,0-1.71-1.39-3.11-3.11-3.11s-3.11,1.39-3.11,3.11c0,1.01,.47,1.57,.93,2.1,.16,.19,.32,.38,.48,.6,.06,.09,.17,.44,.26,.85h-.19v.89h3.25v-.89h-.19c.09-.41,.2-.76,.26-.85,.16-.22,.32-.42,.48-.61Z"/></svg>