<?xml version="1.0" encoding="UTF-8"?><svg id="a" xmlns="http://www.w3.org/2000/svg" xmlns:xlink="http://www.w3.org/1999/xlink" viewBox="0 0 40 40"><defs><style>.h{fill:#fff;}.i{fill:url(#c);}.j{fill:url(#f);}.k{fill:url(#g);}.l{fill:url(#b);}.m{fill:url(#d);}.n{fill:url(#e);}</style><linearGradient id="b" x1="26.96" y1="4.61" x2="23.68" y2="7.89" gradientTransform="matrix(1, 0, 0, 1, 0, 0)" gradientUnits="userSpaceOnUse"><stop offset="0" stop-color="#fc466b"/><stop offset="1" stop-color="#3f5efb"/></linearGradient><linearGradient id="c" x1="35.44" y1="4.62" x2="32.18" y2="7.89" xlink:href="#b"/><linearGradient id="d" x1="31.2" y1="10.99" x2="27.92" y2="14.26" xlink:href="#b"/><linearGradient id="e" x1="35.45" y1="17.34" x2="32.17" y2="20.62" xlink:href="#b"/><linearGradient id="f" x1="9.4" y1="7.29" x2="17.93" y2="7.29" xlink:href="#b"/><linearGradient id="g" x1="3.06" y1="25.33" x2="24.23" y2="25.33" xlink:href="#b"/></defs><path class="l" d="M25.35,3.13c.32,.09,.4,.38,.45,.61,.26,1.11,.91,1.78,2.03,2.03,.24,.05,.57,.13,.59,.45,.03,.39-.36,.46-.61,.52-1.12,.25-1.76,.92-2.02,2.02-.06,.24-.13,.57-.44,.6-.39,.03-.46-.35-.52-.61-.25-1.12-.92-1.77-2.03-2.02-.24-.05-.57-.13-.6-.44-.03-.39,.35-.46,.61-.52,1.12-.25,1.76-.93,2.02-2.03,.06-.26,.14-.59,.51-.62Z"/><path class="i" d="M36.94,6.25c-.02,.3-.27,.38-.49,.43-1.21,.26-1.93,.98-2.2,2.19-.05,.21-.14,.49-.42,.5-.3,.02-.39-.26-.44-.47-.28-1.19-.98-1.94-2.19-2.2-.21-.04-.49-.13-.49-.43,0-.3,.27-.4,.48-.44,1.21-.26,1.93-.99,2.2-2.19,.05-.21,.13-.49,.43-.49,.29,0,.39,.26,.44,.48,.27,1.2,.97,1.94,2.19,2.2,.21,.04,.46,.14,.5,.43Z"/><path class="m" d="M32.69,12.62c-.07,.32-.35,.42-.59,.47-1.16,.24-1.83,.93-2.08,2.08-.05,.24-.14,.56-.47,.56-.34,0-.41-.34-.45-.57-.25-1.15-.93-1.83-2.08-2.08-.23-.05-.57-.14-.56-.47,0-.33,.33-.41,.57-.46,1.15-.26,1.83-.93,2.08-2.09,.05-.23,.13-.56,.48-.55,.29,0,.39,.28,.43,.49,.27,1.21,.98,1.93,2.2,2.19,.21,.04,.46,.14,.49,.43Z"/><path class="n" d="M33.82,15.85c.28,.07,.38,.31,.43,.53,.27,1.16,.92,1.91,2.13,2.15,.23,.05,.57,.14,.55,.48-.02,.33-.35,.39-.59,.45-1.1,.26-1.8,.87-2.05,2.01-.06,.26-.13,.64-.51,.63-.32,0-.4-.35-.45-.58-.25-1.16-.97-1.81-2.1-2.07-.23-.05-.56-.13-.54-.48,.02-.28,.3-.36,.52-.41,1.22-.26,1.92-1.01,2.18-2.21,.05-.21,.13-.47,.43-.47Z"/><path class="j" d="M11.7,3.02h3.93c1.27,0,2.3,1.03,2.3,2.3v5.83c0,.22-.18,.4-.4,.4h-7.73c-.22,0-.4-.18-.4-.4V5.33c0-1.27,1.03-2.3,2.3-2.3Z"/><path class="k" d="M13.62,36.98c-2.38,0-5.12,0-7.51,0-2.05,0-3.03-.78-3.04-2.83-.01-4.53-.03-9.6,0-14.13,.03-3.51,3.49-6.26,7.01-6.3,2.86-.03,4.3-.04,7.15,0,3.59,.05,6.98,2.8,6.99,6.38,0,4.5,0,9.54,0,14.04,0,2.06-.95,2.83-3.01,2.84-2.41,0-5.18,0-7.6,0Z"/><path class="h" d="M17.34,26.62c.78-.91,1.58-1.85,1.58-3.55,0-2.91-2.37-5.28-5.28-5.28s-5.28,2.37-5.28,5.28c0,1.72,.8,2.66,1.58,3.57,.27,.32,.55,.64,.82,1.02,.11,.16,.29,.75,.45,1.45h-.33v1.51h5.52v-1.51h-.33c.16-.7,.34-1.3,.45-1.45,.27-.38,.55-.71,.82-1.03Z"/></svg>